<svg fill="none" height="539" viewBox="0 0 473 539" width="473" xmlns="http://www.w3.org/2000/svg"><path d="m466.973 188.664h-50.822c-3.145 0-5.694 2.55-5.694 5.695v26.458c0 3.145 2.549 5.694 5.694 5.694h50.822c3.145 0 5.694-2.549 5.694-5.694v-26.458c0-3.145-2.549-5.695-5.694-5.695z" fill="#000" opacity=".2"/><path d="m411.518 192.827 27.049 13.888c.85.427 1.788.65 2.74.65.951 0 1.89-.223 2.74-.65l27.747-13.995" stroke="#fff" stroke-linecap="round" stroke-linejoin="round" stroke-width=".75"/><path d="m77.5257 186.005c-.203-.263-.4634-.476-.7614-.623-.298-.146-.6256-.223-.9577-.223h-55.5221l-2.1757-6.434c-.1512-.413-.4254-.769-.7857-1.021-.3602-.253-.7892-.388-1.2289-.389h-14.10215c-.54232.043-1.048568.289-1.417782.688-.369215.4-.574268.924-.574268 1.468s.205053 1.068.574268 1.467c.369214.4.875462.645 1.417782.688h12.50385l13.5515 40.682c.1414.429.4149.804.7814 1.069.3666.265.8076.408 1.26.408h.7925c-.7246 1.122-1.1334 2.418-1.1834 3.752-.0501 1.334.2605 2.657.899 3.83s1.5813 2.151 2.7292 2.833 2.4584 1.042 3.7937 1.042c1.3352 0 2.6457-.36 3.7936-1.042s2.0907-1.66 2.7292-2.833.9491-2.496.8991-3.83c-.0501-1.334-.4589-2.63-1.1834-3.752h10.355c-.7246 1.122-1.1334 2.418-1.1834 3.752-.0501 1.334.2605 2.657.899 3.83s1.5813 2.151 2.7292 2.833 2.4584 1.042 3.7937 1.042c1.3352 0 2.6457-.36 3.7936-1.042s2.0907-1.66 2.7292-2.833.9491-2.496.8991-3.83c-.0501-1.334-.4589-2.63-1.1834-3.752h1.6654c.5423-.043 1.0485-.289 1.4177-.688.3693-.4.5743-.924.5743-1.468s-.205-1.068-.5743-1.467c-.3692-.4-.8754-.645-1.4177-.688h-36.2626l-2.3638-7.105h40.2918c.4742-.001.9349-.158 1.311-.447.3762-.289.647-.693.7707-1.151l6.1378-22.832c.1188-.317.1613-.657.124-.993s-.1535-.659-.3389-.941zm-40.2918 44.818c-.6163 0-1.2187-.183-1.7311-.526-.5124-.342-.9118-.829-1.1476-1.398s-.2975-1.196-.1773-1.8c.1202-.605.417-1.16.8527-1.596.4358-.435.991-.732 1.5954-.852.6045-.121 1.231-.059 1.8003.177.5694.236 1.056.635 1.3984 1.148.3424.512.5251 1.114.5251 1.731.0001.415-.0827.825-.2434 1.208-.1608.382-.3963.729-.6928 1.019s-.648.518-1.0338.671-.7982.227-1.213.218zm22.832 0c-.6162 0-1.2187-.183-1.7311-.526-.5124-.342-.9118-.829-1.1476-1.398s-.2975-1.196-.1773-1.8c.1202-.605.417-1.16.8528-1.596.4357-.435.9909-.732 1.5953-.852.6045-.121 1.231-.059 1.8003.177.5694.236 1.056.635 1.3984 1.148.3424.512.5251 1.114.5251 1.731.0001.415-.0827.825-.2434 1.208-.1608.382-.3963.729-.6928 1.019s-.648.518-1.0338.671-.7982.227-1.213.218zm5.7483-22.832h-7.9778v-18.521h7.9778zm-20.2667-18.521h7.9777v18.521h-7.9777zm-4.3113 18.521h-8.0583v-18.521h8.0583zm-19.5146-18.521h7.1316v18.521h-.967zm48.3501 10.905v-10.905h2.9413z" fill="#000" opacity=".2"/><path d="m418.34 83.301 4.983-2.2698-1.061-5.9766-5.493-.4298c-.696-1.8453-1.621-3.596-2.753-5.2111l2.834-4.7813-4.285-4.2978-4.821 2.8742c-2.774-1.8856-5.913-3.1668-9.214-3.7606l-1.343-5.5065h-6.07l-1.343 5.5334c-1.886.3595-3.722.9457-5.467 1.746l-4.338-3.7606-4.969 3.4785 2.041 5.3723c-1.33 1.3694-2.497 2.8882-3.478 4.5261l-5.722-.591-2.081 5.708 4.741 3.2099c-.232 1.3306-.349 2.6786-.35 4.0292 0 .5775 0 1.1416.068 1.7057l-4.97 2.7801 1.572 5.8692h5.627c.834 1.7568 1.875 3.4072 3.103 4.9156l-2.485 4.9829 4.647 3.895 4.513-3.224c1.693.977 3.496 1.748 5.372 2.297l.9 5.372 6.057.537 1.813-5.157c1.987-.172 3.945-.592 5.829-1.249l3.814 3.868 5.265-3.035-1.451-5.225c1.52-1.296 2.874-2.7757 4.03-4.405l5.372.9805 2.605-5.3991-4.19-3.4651c.474-1.9428.709-3.9365.698-5.9363zm-8.985-.1075c0 2.999-.889 5.9306-2.555 8.4242s-4.034 4.4371-6.805 5.5847c-2.771 1.1477-5.82 1.448-8.761.8629s-5.643-2.0292-7.764-4.1498c-2.12-2.1206-3.565-4.8224-4.15-7.7638s-.284-5.9902.863-8.7609c1.148-2.7707 3.091-5.1388 5.585-6.805 2.494-1.6661 5.425-2.5554 8.424-2.5554 2.006-.009 3.993.3803 5.846 1.1452 1.854.7649 3.538 1.8903 4.953 3.3108 1.416 1.4205 2.535 3.1079 3.293 4.9643.759 1.8564 1.141 3.845 1.125 5.8503z" fill="#000" opacity=".2"/><path d="m399.417 349.522c-.3.559-.372 1.212-.202 1.822.17.611.57 1.132 1.115 1.455.66.4 1.45.527 2.202.354.753-.173 1.408-.632 1.827-1.28l7.078-10.92.134-.241 9.106-.967-.926 1.813c-.143.265-.184.573-.118.867.067.293.237.553.48.731.138.096.294.162.459.194.164.032.334.029.497-.009.164-.038.317-.11.451-.211.134-.102.245-.23.326-.377l1.84-3.317 6.849-.725-1.343 2.524c-.14.272-.172.586-.089.88.082.294.272.546.533.705.032.144.108.274.216.374.108.099.244.163.39.184.146.02.294-.004.426-.07.131-.066.24-.171.311-.3l2.565-4.62 4.539-.483c.835-.085 1.641-.354 2.358-.788.718-.435 1.33-1.023 1.792-1.724l.753-1.128-13.901-1.45s-9.012-.82-10.422-5.252l6.943-12.974.068-.174 9.629-1.048 2.109-2.794-9.227-2.269.631-1.518c.014-.032.016-.067.006-.1s-.031-.062-.06-.081c-.028-.019-.063-.028-.097-.024s-.066.019-.09.044l-1.344 1.343-6.393-7.373-1.826 3.397 3.855 8.341-.242.242-7.508 11.134c-1.41 1.181-4.029 2.686-6.205.214-3.304-3.585-11.993-17.567-11.993-17.567l-.86 2.136c-.551 1.398-.551 2.953 0 4.351l1.531 4.029-2.082 3.882c-.142.265-.184.573-.117.867.067.293.237.553.48.731.14.094.298.158.464.188s.336.025.5-.014.318-.112.453-.213c.134-.102.246-.23.329-.377l1.074-1.934 2.257 5.896-1.988 3.868c-.145.268-.186.58-.117.877s.245.558.493.734c.139.094.296.158.461.188.165.029.334.024.497-.015s.316-.111.449-.213c.134-.101.244-.229.326-.376l1.155-1.88 3.438 8.958z" fill="#000" opacity=".2"/><path d="m148.48 49.3619h-63.6884v38.304h63.6884z" fill="#000" opacity=".2"/><path d="m115.669 79.2046c6.252 0 11.322-5.069 11.322-11.322 0-6.2529-5.07-11.322-11.322-11.322-6.253 0-11.322 5.0691-11.322 11.322 0 6.253 5.069 11.322 11.322 11.322z" fill="#fff"/><path d="m123.888 67.8826-12.45-7.1853v14.3707z" fill="#000" opacity=".2"/><path d="m71.3208 305.765v30.031c-1.2409-.656-2.6255-.993-4.0291-.98-3.8949 0-7.0377 2.431-7.0377 5.372s3.1428 5.439 7.0377 5.439c6.5541 0 7.0376-4.485 7.0376-4.485v-26.378l18.6954-2.686v20.146c-1.2443-.646-2.6274-.978-4.0292-.967-3.8949 0-7.0376 2.431-7.0376 5.439s3.1427 5.372 7.0376 5.372c3.4517 0 6.3258-1.947 6.9033-4.486l.1075-25.961v-9.401z" fill="#000" opacity=".2"/><path d="m274.7 32.2647v-3.4785c0-.5735-.228-1.1235-.633-1.529-.406-.4055-.956-.6333-1.529-.6333h-3.667c-.573 0-1.123.2278-1.529.6333-.405.4055-.633.9555-.633 1.529v12.5845h-36.263v-12.5845c0-.5735-.227-1.1235-.633-1.529-.405-.4055-.955-.6333-1.529-.6333h-3.908c-.567.0105-1.106.243-1.503.6474-.397.4043-.619.9483-.619 1.5149v3.4785h-5.762c-.652 0-1.277.259-1.738.7199s-.72 1.0861-.72 1.7379v16.345c0 .6531.259 1.2797.719 1.7427.461.4631 1.086.725 1.739.7286h5.762v3.4382c.003.562.225 1.1006.619 1.5017.393.4011.928.6333 1.489.6472h3.909c.573 0 1.123-.2278 1.529-.6333.405-.4055.633-.9555.633-1.529v-9.9252h36.263v9.858c-.009.2907.04.5803.146.8513.105.271.264.518.467.7262.204.2081.447.3731.715.4852.268.112.557.1688.847.1668h3.667c.573 0 1.123-.2278 1.529-.6333.405-.4055.633-.9555.633-1.529v-3.4785h5.534c.644-.0034 1.261-.2579 1.72-.7094.459-.4516.723-1.0644.737-1.7082v-16.3718c-.007-.6472-.269-1.2655-.729-1.7206-.46-.4552-1.081-.7104-1.728-.7104z" fill="#000" opacity=".2"/><path d="m248.564 371.374c82.424 0 149.241-66.818 149.241-149.241s-66.817-149.2407-149.241-149.2407c-82.423 0-149.2405 66.8177-149.2405 149.2407s66.8175 149.241 149.2405 149.241z" fill="#000" opacity=".2"/><path d="m248.564 359.662c75.956 0 137.53-61.574 137.53-137.529s-61.574-137.5293-137.53-137.5293c-75.955 0-137.529 61.5743-137.529 137.5293s61.574 137.529 137.529 137.529z" fill="#fff" stroke="#000" stroke-miterlimit="10"/><path d="m248.564 226.632c-.6.004-1.194-.113-1.748-.344-.554-.23-1.055-.57-1.475-.999l-86.507-88.843c-.79-.863-1.212-1.999-1.179-3.168.034-1.17.522-2.28 1.36-3.095.839-.816 1.962-1.273 3.131-1.275 1.17-.002 2.294.452 3.135 1.266l86.52 88.776c.619.634 1.036 1.436 1.201 2.306s.069 1.769-.275 2.585-.922 1.512-1.66 2.002c-.738.489-1.604.75-2.489.749z" fill="#000" opacity=".04"/><path d="m209.763 252.594c-.968.004-1.911-.304-2.691-.878-.779-.574-1.352-1.385-1.634-2.311s-.258-1.918.069-2.829.939-1.693 1.745-2.229l38.814-25.961c.992-.628 2.191-.844 3.34-.6 1.148.243 2.156.926 2.809 1.902.652.977.896 2.17.681 3.324s-.873 2.179-1.834 2.855l-38.801 25.961c-.739.496-1.608.762-2.498.766z" fill="#000" opacity=".2"/><g stroke-linecap="round"><path d="m254.138 222.133c.003-1.103-.322-2.182-.933-3.1-.611-.919-1.48-1.635-2.498-2.059-1.019-.424-2.14-.536-3.222-.323-1.082.214-2.076.744-2.857 1.523s-1.313 1.772-1.529 2.853c-.216 1.082-.107 2.203.315 3.222.421 1.02 1.135 1.891 2.052 2.504s1.995.94 3.098.94c1.476 0 2.892-.585 3.937-1.627 1.045-1.043 1.633-2.457 1.637-3.933z" fill="#000" stroke="#000" stroke-miterlimit="10"/><path d="m248.672 96.9061v18.5879" stroke="#000" stroke-miterlimit="10" stroke-width="2"/><path d="m248.672 327.321v18.588" stroke="#000" stroke-miterlimit="10" stroke-width="2"/><path d="m373.173 221.408h-18.601" stroke="#000" stroke-miterlimit="10" stroke-width="2"/><path d="m142.758 221.408h-18.588" stroke="#000" stroke-miterlimit="10" stroke-width="2"/><path d="m313.958 115.4-9.751 15.835" stroke="#000" stroke-miterlimit="10" stroke-width="2"/><path d="m193.123 311.581-9.751 15.834" stroke="#000" stroke-miterlimit="10" stroke-width="2"/><path d="m358.198 162.219-16.358 8.837" stroke="#000" stroke-miterlimit="10" stroke-width="2"/><path d="m155.49 271.759-16.358 8.837" stroke="#000" stroke-miterlimit="10" stroke-width="2"/><path d="m354.679 286.707-15.834-9.764" stroke="#000" stroke-miterlimit="10" stroke-width="2"/><path d="m158.499 165.872-15.835-9.75" stroke="#000" stroke-miterlimit="10" stroke-width="2"/><path d="m307.86 330.948-8.837-16.372" stroke="#000" stroke-miterlimit="10" stroke-width="2"/><path d="m198.32 128.24-8.837-16.359" stroke="#000" stroke-miterlimit="10" stroke-width="2"/></g><path d="m245.744 538.504c59.125 0 107.055-5.664 107.055-12.652 0-6.987-47.93-12.651-107.055-12.651s-107.055 5.664-107.055 12.651c0 6.988 47.93 12.652 107.055 12.652z" fill="#fff"/><path d="m245.744 538.504c59.125 0 107.055-5.664 107.055-12.652 0-6.987-47.93-12.651-107.055-12.651s-107.055 5.664-107.055 12.651c0 6.988 47.93 12.652 107.055 12.652z" fill="#fff" opacity=".5"/><path d="m274.472 337.609c-.148-2.981 0-7.575.121-10.22.357-2.14.537-4.305.537-6.474 0-28.795-11.107-31.213-24.833-31.213s-24.833 4.62-24.833 31.213c0 .698 0 1.343.067 2.082.121 1.155 1.249 12.195.215 16.358-1.102 4.392-9.899 5.278-14.949 15.821s5.937 25.935 41.756 27.909c35.819 1.975 39.54-21.959 39.54-30.084 0-8.126-17.393-11-17.621-15.392z" fill="#000"/><path d="m224.591 323.104.886-.094v-.121z" fill="#000"/><path d="m229.64 362.657s-14.491.793-19.635 3.68c-5.144 2.888-6.111 19.931-6.111 19.931l-15.418 33.093s-41.461-28.916-44.993-31.803c-3.532-2.888-4.499-5.144-8.058-7.401-3.559-2.256-4.822-2.243-9.321-2.243s-5.144.645-4.822 1.921c.323 1.276 1.934 1.612 3.21 1.612 1.411.112 2.811.328 4.191.644l-12.867 5.144c-3.21 1.276-2.565-3.868-5.453-3.868-2.887 0-2.578 7.401 2.243 10.933 4.822 3.532 8.059 2.565 11.886 2.243 3.828-.323 12.867-1.599 12.867-1.599s24.739 21.852 33.737 29.884c8.999 8.031 21.207 15.74 25.707 12.53 4.499-3.21 21.489-34.704 21.489-34.704l10.919-28.916s3.048-6.071.429-11.081z" fill="#fff"/><path d="m229.64 362.657s-14.491.793-19.635 3.68c-5.144 2.888-6.111 19.931-6.111 19.931l-15.418 33.093s-41.461-28.916-44.993-31.803c-3.532-2.888-4.499-5.144-8.058-7.401-3.559-2.256-4.822-2.243-9.321-2.243s-5.144.645-4.822 1.921c.323 1.276 1.934 1.612 3.21 1.612 1.411.112 2.811.328 4.191.644l-12.867 5.144c-3.21 1.276-2.565-3.868-5.453-3.868-2.887 0-2.578 7.401 2.243 10.933 4.822 3.532 8.059 2.565 11.886 2.243 3.828-.323 12.867-1.599 12.867-1.599s24.739 21.852 33.737 29.884c8.999 8.031 21.207 15.74 25.707 12.53 4.499-3.21 21.489-34.704 21.489-34.704l10.919-28.916s3.048-6.071.429-11.081z" fill="#c77b7b" opacity=".1"/><path d="m229.64 362.657s-14.491.793-19.635 3.68c-5.144 2.888-6.111 19.931-6.111 19.931l-15.418 33.093s-41.461-28.916-44.993-31.803c-3.532-2.888-4.499-5.144-8.058-7.401-3.559-2.256-4.822-2.243-9.321-2.243s-5.144.645-4.822 1.921c.323 1.276 1.934 1.612 3.21 1.612 1.411.112 2.811.328 4.191.644l-12.867 5.144c-3.21 1.276-2.565-3.868-5.453-3.868-2.887 0-2.578 7.401 2.243 10.933 4.822 3.532 8.059 2.565 11.886 2.243 3.828-.323 12.867-1.599 12.867-1.599s24.739 21.852 33.737 29.884c8.999 8.031 21.207 15.74 25.707 12.53 4.499-3.21 21.489-34.704 21.489-34.704l10.919-28.916s3.048-6.071.429-11.081z" stroke="#000" stroke-linecap="round" stroke-miterlimit="10"/><path d="m113.533 395.012s-6.259-5.077-2.888-10.047c.833-1.235 2.687.632 3.224 4.03s2.229 4.714 3.102 4.956" fill="#fff"/><path d="m113.533 395.012s-6.259-5.077-2.888-10.046c.833-1.236 2.686.631 3.224 4.029.537 3.398 2.229 4.714 3.102 4.956" fill="#c77b7b" opacity=".1"/><path d="m113.533 395.012s-6.259-5.077-2.888-10.047c.833-1.235 2.687.632 3.224 4.03s2.229 4.714 3.102 4.956" stroke="#000" stroke-linecap="round" stroke-miterlimit="10"/><path d="m118.207 393.897c-1.491 0-1.41-4.029-4.217-5.95-2.23-1.571-1.948 1.518-1.424 4.029.205 1.03.716 1.975 1.466 2.711.75.735 1.704 1.227 2.738 1.412.962.241 1.963.283 2.941.121" fill="#fff"/><path d="m118.207 393.897c-1.491 0-1.41-4.029-4.217-5.95-2.23-1.571-1.948 1.518-1.424 4.029.205 1.03.716 1.975 1.466 2.711.75.735 1.704 1.227 2.738 1.412.962.241 1.963.283 2.941.121" fill="#c77b7b" opacity=".1"/><path d="m118.207 393.897c-1.491 0-1.41-4.029-4.217-5.95-2.23-1.571-1.948 1.518-1.424 4.029.205 1.03.716 1.975 1.466 2.711.75.735 1.704 1.227 2.738 1.412.962.241 1.963.283 2.941.121" stroke="#000" stroke-linecap="round" stroke-miterlimit="10"/><path d="m137.063 387.329s-2.108-1.491-6.205-.121c-4.096 1.37-8.931 7.32-10.046 6.823-1.042-.597-1.834-1.551-2.229-2.686-.631-1.236-1.854-3.022-2.686-1.585-1.854 3.143 3.196 6.716 3.196 6.716s.699.59 4.607.12 12.732-1.705 12.732-1.705" fill="#fff"/><path d="m137.063 387.329s-2.108-1.491-6.205-.121c-4.096 1.37-8.931 7.32-10.046 6.823-1.042-.597-1.834-1.551-2.229-2.686-.631-1.236-1.854-3.022-2.686-1.585-1.854 3.143 3.196 6.716 3.196 6.716s.699.59 4.607.12 12.732-1.705 12.732-1.705" fill="#c77b7b" opacity=".1"/><path d="m137.063 387.329s-2.108-1.491-6.205-.121c-4.096 1.37-8.931 7.32-10.046 6.823-1.042-.597-1.834-1.551-2.229-2.686-.631-1.236-1.854-3.022-2.686-1.585-1.854 3.143 3.196 6.716 3.196 6.716s.699.59 4.607.12 12.732-1.705 12.732-1.705" stroke="#000" stroke-linecap="round" stroke-miterlimit="10"/><path d="m218.533 395.764-4.687-13.417" stroke="#000" stroke-linecap="round" stroke-miterlimit="10"/><path d="m267.26 362.362s15.27 1.088 20.414 4.029 6.111 19.931 6.111 19.931l15.418 33.093s41.461-28.916 44.993-31.804c3.532-2.887 4.499-5.144 8.058-7.4s4.822-2.243 9.321-2.243 5.144.645 4.822 1.921c-.323 1.276-1.934 1.611-3.224 1.611-1.406.114-2.802.329-4.177.645l12.853 5.144c3.224 1.276 2.579-3.868 5.467-3.868 2.887 0 2.578 7.4-2.243 10.933-4.822 3.532-8.059 2.565-11.9 2.242-3.841-.322-12.853-1.598-12.853-1.598s-24.739 21.852-33.738 29.883c-8.998 8.032-21.206 15.741-25.706 12.531-4.499-3.21-21.489-34.705-21.489-34.705l-10.919-28.916s-3.814-6.42-1.208-11.429z" fill="#fff"/><path d="m267.26 362.362s15.27 1.088 20.414 4.029 6.111 19.931 6.111 19.931l15.418 33.093s41.461-28.916 44.993-31.804c3.532-2.887 4.499-5.144 8.058-7.4s4.822-2.243 9.321-2.243 5.144.645 4.822 1.921c-.323 1.276-1.934 1.611-3.224 1.611-1.406.114-2.802.329-4.177.645l12.853 5.144c3.224 1.276 2.579-3.868 5.467-3.868 2.887 0 2.578 7.4-2.243 10.933-4.822 3.532-8.059 2.565-11.9 2.242-3.841-.322-12.853-1.598-12.853-1.598s-24.739 21.852-33.738 29.883c-8.998 8.032-21.206 15.741-25.706 12.531-4.499-3.21-21.489-34.705-21.489-34.705l-10.919-28.916s-3.814-6.42-1.208-11.429z" fill="#c77b7b" opacity=".1"/><path d="m267.26 362.362s15.27 1.088 20.414 4.029 6.111 19.931 6.111 19.931l15.418 33.093s41.461-28.916 44.993-31.804c3.532-2.887 4.499-5.144 8.058-7.4s4.822-2.243 9.321-2.243 5.144.645 4.822 1.921c-.323 1.276-1.934 1.611-3.224 1.611-1.406.114-2.802.329-4.177.645l12.853 5.144c3.224 1.276 2.579-3.868 5.467-3.868 2.887 0 2.578 7.4-2.243 10.933-4.822 3.532-8.059 2.565-11.9 2.242-3.841-.322-12.853-1.598-12.853-1.598s-24.739 21.852-33.738 29.883c-8.998 8.032-21.206 15.741-25.706 12.531-4.499-3.21-21.489-34.705-21.489-34.705l-10.919-28.916s-3.814-6.42-1.208-11.429z" stroke="#000" stroke-linecap="round" stroke-miterlimit="10"/><path d="m279.387 392.957 3.734-10.919" stroke="#000" stroke-linecap="round" stroke-miterlimit="10"/><path d="m385.691 393.185s2.686-7.588 1.343-8.219c-1.343-.632-2.687.631-3.224 4.029s-2.229 4.714-3.102 4.956" fill="#fff"/><path d="m387.53 391.547s.873-5.95-.496-6.581c-1.37-.632-2.687.631-3.224 4.029s-2.229 4.714-3.102 4.956" fill="#c77b7b" opacity=".1"/><path d="m385.691 393.185s2.686-7.588 1.343-8.219c-1.343-.632-2.687.631-3.224 4.029s-2.229 4.714-3.102 4.956" stroke="#000" stroke-linecap="round" stroke-miterlimit="10"/><path d="m383.649 394.542s3.385-9.576-.537-7.038c-2.888 1.867-2.149 6.393-3.64 6.393" fill="#fff"/><path d="m384.428 394.649s2.606-9.683-1.343-7.145c-2.888 1.867-2.149 6.393-3.64 6.393" fill="#c77b7b" opacity=".1"/><path d="m383.649 394.542s3.385-9.576-.537-7.038c-2.888 1.867-2.149 6.393-3.64 6.393" stroke="#000" stroke-linecap="round" stroke-miterlimit="10"/><path d="m360.589 387.329s2.108-1.491 6.205-.121c4.096 1.37 8.931 7.32 10.046 6.823 1.043-.597 1.834-1.551 2.229-2.686.618-1.236 1.746-1.974 2.485-.497s-1.491 5.842-1.491 5.842-1.343.954-4.633.188c-3.716-.893-7.49-1.517-11.296-1.866" fill="#fff"/><path d="m360.589 387.329s2.108-1.491 6.205-.121c4.096 1.37 8.931 7.32 10.046 6.823 1.043-.597 1.834-1.551 2.229-2.686.618-1.236 1.746-1.974 2.485-.497s-1.491 5.842-1.491 5.842-1.343.954-4.633.188c-3.291-.765-12.182-3.129-14.21-3.129" fill="#c77b7b" opacity=".1"/><path d="m360.589 387.329s2.108-1.491 6.205-.121c4.096 1.37 8.931 7.32 10.046 6.823 1.043-.597 1.834-1.551 2.229-2.686.618-1.236 1.746-1.974 2.485-.497s-1.491 5.842-1.491 5.842-1.343.954-4.633.188c-3.716-.893-7.49-1.517-11.296-1.866" stroke="#000" stroke-linecap="round" stroke-miterlimit="10"/><path d="m242.829 343.102s-.658 7.481-3.733 12.531c-3.076 5.05-9.402 7.024-9.402 7.024l-12.517 38.466 6.541 26.001s-11.658 17.729-16.238 28.5.927 22.953 5.762 28.003 11.255 11.899 27.64 11.255c22.832-.9 38.949 1.181 46.268-7.387 7.32-8.569 8.059-24.753-.644-36.961-5.265-7.427-12.451-23.477-12.451-23.477l7.119-26.794-10.906-37.606s-6.567-.376-10.516-5.211-3.076-13.632-3.076-13.632z" fill="#fff"/><path d="m242.829 343.102s-.658 7.481-3.733 12.531c-3.076 5.05-9.402 7.024-9.402 7.024l-12.517 38.466 6.541 26.001s-11.658 17.729-16.238 28.5.927 22.953 5.762 28.003 11.255 11.899 27.64 11.255c22.832-.9 38.949 1.181 46.268-7.387 7.32-8.569 8.059-24.753-.644-36.961-5.265-7.427-12.451-23.477-12.451-23.477l7.119-26.794-10.906-37.606s-6.567-.376-10.516-5.211-3.076-13.632-3.076-13.632z" fill="#c77b7b" opacity=".1"/><path d="m242.829 343.102s-.658 7.481-3.733 12.531c-3.076 5.05-9.402 7.024-9.402 7.024l-12.517 38.466 6.541 26.001s-11.658 17.729-16.238 28.5.927 22.953 5.762 28.003 11.255 11.899 27.64 11.255c22.832-.9 38.949 1.181 46.268-7.387 7.32-8.569 8.059-24.753-.644-36.961-5.265-7.427-12.451-23.477-12.451-23.477l7.119-26.794-10.906-37.606s-6.567-.376-10.516-5.211-3.076-13.632-3.076-13.632z" stroke="#000" stroke-linecap="round" stroke-miterlimit="10"/><path d="m281.174 400.263-10.906-37.606c-1.093-.077-2.177-.257-3.237-.537 1.263 8.743-.241 13.122-.241 13.122-.216 1.918-.889 3.757-1.961 5.362-1.073 1.606-2.514 2.931-4.204 3.865-5.923 3.518-17.138 4.177-24.175-1.531-5.372-4.312-4.365-16.117-3.573-21.664-1.036.555-2.119 1.018-3.237 1.383l-12.517 38.466 6.595 26.001h50.311z" fill="#000" stroke="#000" stroke-linecap="round" stroke-miterlimit="10"/><path d="m232.179 325.656s-4.029-5.265-5.453-1.343 5.654 7.4 5.654 7.4z" fill="#fff"/><path d="m232.179 325.656s-4.029-5.265-5.453-1.343c-1.423 3.922 5.654 7.4 5.654 7.4z" fill="#c77b7b" opacity=".1"/><path d="m232.179 325.656s-4.029-5.265-5.453-1.343 5.654 7.4 5.654 7.4z" stroke="#000" stroke-linecap="round" stroke-miterlimit="10"/><path d="m267.81 325.656s4.097-5.265 5.453-1.343c1.357 3.922-5.641 7.4-5.641 7.4z" fill="#fff"/><path d="m267.81 325.656s4.097-5.265 5.453-1.343c1.357 3.922-5.641 7.4-5.641 7.4z" fill="#c77b7b" opacity=".1"/><path d="m267.81 325.656s4.097-5.265 5.453-1.343c1.357 3.922-5.641 7.4-5.641 7.4z" stroke="#000" stroke-linecap="round" stroke-miterlimit="10"/><path d="m250.176 348.354c-4.688 0-9.183-1.862-12.498-5.177s-5.177-7.81-5.177-12.498v-27.116c-.002-.866.167-1.723.497-2.523s.815-1.527 1.426-2.139c.611-.613 1.337-1.099 2.137-1.43.799-.332 1.656-.503 2.521-.503h22.12c.877-.016 1.747.143 2.561.467s1.555.808 2.181 1.421c.625.614 1.121 1.347 1.46 2.155s.514 1.675.514 2.552v27.156c-.007 2.323-.472 4.622-1.367 6.765-.896 2.144-2.205 4.09-3.852 5.727-1.647 1.638-3.601 2.935-5.75 3.817s-4.45 1.333-6.773 1.326z" fill="#fff"/><path d="m250.176 348.354c-4.688 0-9.183-1.862-12.498-5.177s-5.177-7.81-5.177-12.498v-27.116c-.002-.866.167-1.723.497-2.523s.815-1.527 1.426-2.139c.611-.613 1.337-1.099 2.137-1.43.799-.332 1.656-.503 2.521-.503h22.12c.877-.016 1.747.143 2.561.467s1.555.808 2.181 1.421c.625.614 1.121 1.347 1.46 2.155s.514 1.675.514 2.552v27.156c-.007 2.323-.472 4.622-1.367 6.765-.896 2.144-2.205 4.09-3.852 5.727-1.647 1.638-3.601 2.935-5.75 3.817s-4.45 1.333-6.773 1.326z" fill="#c77b7b" opacity=".1"/><path d="m250.176 348.354c-4.688 0-9.183-1.862-12.498-5.177s-5.177-7.81-5.177-12.498v-27.116c-.002-.866.167-1.723.497-2.523s.815-1.527 1.426-2.139c.611-.613 1.337-1.099 2.137-1.43.799-.332 1.656-.503 2.521-.503h22.12c.877-.016 1.747.143 2.561.467s1.555.808 2.181 1.421c.625.614 1.121 1.347 1.46 2.155s.514 1.675.514 2.552v27.156c-.007 2.323-.472 4.622-1.367 6.765-.896 2.144-2.205 4.09-3.852 5.727-1.647 1.638-3.601 2.935-5.75 3.817s-4.45 1.333-6.773 1.326z" stroke="#000" stroke-linecap="round" stroke-miterlimit="10"/><path d="m237.027 318.645c1.213.804 2.635 1.233 4.09 1.233s2.877-.429 4.089-1.233" stroke="#000" stroke-linecap="round" stroke-miterlimit="10"/><path d="m255.347 318.645c1.209.805 2.63 1.234 4.083 1.234 1.452 0 2.873-.429 4.082-1.234" stroke="#000" stroke-linecap="round" stroke-miterlimit="10"/><path d="m251.841 315.731 1.169 11.282h-4.674" stroke="#000" stroke-linecap="round" stroke-miterlimit="10"/><path d="m248.524 333.432h4.674" stroke="#000" stroke-linecap="round" stroke-miterlimit="10"/><path d="m250.35 296.928h-11.268c-.865 0-1.722.171-2.521.502-.8.332-1.526.818-2.137 1.43-.611.613-1.096 1.34-1.426 2.14s-.499 1.657-.497 2.522v13.431c7.212-6.272 15.607-17.057 17.849-20.025z" fill="#000" stroke="#000" stroke-miterlimit="10"/><path d="m267.918 317.463v-13.9c0-1.749-.695-3.427-1.932-4.663-1.237-1.237-2.914-1.932-4.663-1.932h-10.086c2.323 7.36 11.308 15.996 16.681 20.495z" fill="#000" stroke="#000" stroke-miterlimit="10"/><path d="m236.262 313.394s2.108-3.707 8.824-3.116" stroke="#000" stroke-linecap="round" stroke-miterlimit="10" stroke-width="2"/><path d="m253.977 310.278c1.786-.745 3.776-.841 5.626-.272s3.442 1.768 4.5 3.388" stroke="#000" stroke-linecap="round" stroke-miterlimit="10" stroke-width="2"/><path d="m207.48 455.624c-4.62 10.744.927 22.953 5.762 28.003s11.255 11.899 27.64 11.255c22.832-.9 38.949 1.181 46.268-7.387 7.32-8.569 8.059-24.753-.644-36.961-1.968-2.89-3.762-5.895-5.373-8.999h-66.333c-2.705 4.554-5.149 9.258-7.32 14.089z" fill="#000" stroke="#000" stroke-linecap="round" stroke-miterlimit="10"/><path d="m243.42 477.422c-11.563-11.994-32.556-17.997-42.843-19.716-10.288-1.719-29.131-12.088-29.131-12.088s-11.148-.376-10.288 12.907c.859 13.283 32.985 28.715 45.422 35.564 5.587 3.152 11.847 4.918 18.257 5.152s12.782-1.072 18.583-3.809" fill="#000"/><path d="m243.42 477.422c-11.563-11.994-32.556-17.997-42.843-19.716-10.288-1.719-29.131-12.088-29.131-12.088s-11.148-.376-10.288 12.907c.859 13.283 32.985 28.715 45.422 35.564 5.587 3.152 11.847 4.918 18.257 5.152s12.782-1.072 18.583-3.809" stroke="#000" stroke-linecap="round" stroke-miterlimit="10"/><path d="m250.659 477.851c11.564-11.993 32.556-17.997 42.844-19.716s26.284-10.475 26.284-10.475 13.994-1.948 13.135 11.335c-.86 13.283-32.986 28.701-45.423 35.564-5.587 3.149-11.847 4.914-18.256 5.147-6.41.234-12.782-1.071-18.584-3.804" fill="#000"/><path d="m250.659 477.851c11.564-11.993 32.556-17.997 42.844-19.716s26.284-10.475 26.284-10.475 13.994-1.948 13.135 11.335c-.86 13.283-32.986 28.701-45.423 35.564-5.587 3.149-11.847 4.914-18.256 5.147-6.41.234-12.782-1.071-18.584-3.804" stroke="#000" stroke-linecap="round" stroke-miterlimit="10"/><path d="m298.929 498.817s1.585-1.048.792-3.694c-.792-2.646-5.023-.537-7.937-.537-2.915 0-14.022-1.061-19.3-1.585-4.526-.456-11.926-.322-13.981-.282.298 3.255-.37 6.525-1.921 9.402l1.034.107c8.999.886 12.907 1.061 15.66 1.639 5.024 1.061 10.57 5.291 16.117 5.036s10.584-4.029 10.584-6.353c.054-1.324-.312-2.631-1.048-3.733z" fill="#fff"/><path d="m298.929 498.817s1.585-1.048.792-3.694c-.792-2.646-5.023-.537-7.937-.537-2.915 0-14.022-1.061-19.3-1.585-4.526-.456-11.926-.322-13.981-.282.298 3.255-.37 6.525-1.921 9.402l1.034.107c8.999.886 12.907 1.061 15.66 1.639 5.024 1.061 10.57 5.291 16.117 5.036s10.584-4.029 10.584-6.353c.054-1.324-.312-2.631-1.048-3.733z" fill="#c77b7b" opacity=".1"/><path d="m298.929 498.817s1.585-1.048.792-3.694c-.792-2.646-5.023-.537-7.937-.537-2.915 0-14.022-1.061-19.3-1.585-4.526-.456-11.926-.322-13.981-.282.298 3.255-.37 6.525-1.921 9.402l1.034.107c8.999.886 12.907 1.061 15.66 1.639 5.024 1.061 10.57 5.291 16.117 5.036s10.584-4.029 10.584-6.353c.054-1.324-.312-2.631-1.048-3.733z" stroke="#000" stroke-linecap="round" stroke-miterlimit="10"/><path d="m298.929 498.817c-1.543.261-3.118.261-4.661 0" stroke="#000" stroke-linecap="round" stroke-miterlimit="10"/><path d="m299.99 502.524c-2.052.157-4.113.157-6.165 0" stroke="#000" stroke-linecap="round" stroke-miterlimit="10"/><path d="m292.791 504.887c1.445.808 3.127 1.084 4.755.779" stroke="#000" stroke-linecap="round" stroke-miterlimit="10"/><path d="m290.75 506.62c1.368.658 2.901.896 4.405.685" stroke="#000" stroke-linecap="round" stroke-miterlimit="10"/><path d="m256.582 502.094c1.551-2.877 2.219-6.147 1.921-9.402h-.578s-20.36-4.19-37.283-14.532c-16.923-10.341-38.358-26.176-49.196-32.528-10.839-6.353-21.167 3.169-20.146 13.229 1.021 10.059 9.254 15.337 24.067 21.489 14.814 6.151 41.796 15.606 56.073 18.507 7.4 1.464 16.936 2.471 25.142 3.237z" fill="#000" stroke="#000" stroke-linecap="round" stroke-miterlimit="10"/><path d="m232.797 504.887c-1.547-2.878-2.21-6.148-1.907-9.401h.564s20.36-4.231 37.296-14.545c16.936-10.315 38.345-26.19 49.197-32.543 10.852-6.352 21.153 3.183 20.145 13.229-1.007 10.046-9.253 15.338-24.067 21.422s-41.783 15.606-56.073 18.521c-7.414 1.531-16.896 2.538-25.155 3.317z" fill="#000" stroke="#000" stroke-linecap="round" stroke-miterlimit="10"/><path d="m230.89 495.513s-19.596.765-25.814.336c-6.218-.43-10.932-3.439-12.638-1.934-1.706 1.504.43 3.854.43 3.854s-.645 3.64 1.074 5.574 4.029 3.639 11.349 5.788 14.774-.886 18.803-1.96l8.662-2.284s-1.987-3.075-1.866-9.374z" fill="#fff"/><path d="m230.89 495.513s-19.596.765-25.814.336c-6.218-.43-10.932-3.439-12.638-1.934-1.706 1.504.43 3.854.43 3.854s-.645 3.64 1.074 5.574 4.029 3.639 11.349 5.788 14.774-.886 18.803-1.96l8.662-2.284s-1.987-3.075-1.866-9.374z" fill="#c77b7b" opacity=".1"/><path d="m230.89 495.513s-19.596.765-25.814.336c-6.218-.43-10.932-3.439-12.638-1.934-1.706 1.504.43 3.854.43 3.854s-.645 3.64 1.074 5.574 4.029 3.639 11.349 5.788 14.774-.886 18.803-1.96l8.662-2.284s-1.987-3.075-1.866-9.374z" stroke="#000" stroke-linecap="round" stroke-miterlimit="10"/><path d="m192.867 497.769c.443-.297.965-.456 1.498-.456s1.055.159 1.497.456c1.026.7 2.197 1.159 3.425 1.343" stroke="#000" stroke-linecap="round" stroke-miterlimit="10"/><path d="m193.109 501.933c.343-.309.755-.53 1.203-.642.447-.112.915-.114 1.363-.003 1.022.291 2.079.445 3.142.457" stroke="#000" stroke-linecap="round" stroke-miterlimit="10"/><path d="m196.386 505.331s.376-1.088 1.088-1.088 3.653.389 4.419.322" stroke="#000" stroke-linecap="round" stroke-miterlimit="10"/><path d="m200.55 507.453s.712-.967 1.343-1.021c.81-.114 1.626-.181 2.444-.202" stroke="#000" stroke-linecap="round" stroke-miterlimit="10"/><path d="m240.855 494.882s40.99-20.146 57.55-31.603" stroke="#fff" stroke-linecap="round" stroke-miterlimit="10"/><path d="m194.587 460.701s35.027 27.385 54.77 29.292" stroke="#fff" stroke-linecap="round" stroke-miterlimit="10"/><path d="m210.985 459.962s26.647 8.26 33.577 18.924" stroke="#fff" stroke-linecap="round" stroke-miterlimit="10"/><path d="m253.896 475.152s16.52-11.725 33.577-15.19" stroke="#fff" stroke-linecap="round" stroke-miterlimit="10"/></svg>